<svg xmlns="http://www.w3.org/2000/svg" width="512" height="512" viewBox="0 0 135.467 135.467"><path style="line-height:normal;font-variant-ligatures:normal;font-variant-position:normal;font-variant-caps:normal;font-variant-numeric:normal;font-variant-alternates:normal;font-variant-east-asian:normal;font-feature-settings:normal;font-variation-settings:normal;text-indent:0;text-align:start;text-decoration-line:none;text-decoration-style:solid;text-decoration-color:#000;text-transform:none;text-orientation:mixed;shape-padding:0;shape-margin:0;inline-size:0;isolation:auto;mix-blend-mode:normal" d="M67.762 0a2.887 2.887 0 0 0-2.07.844l-18.148 18.15H21.879a2.887 2.887 0 0 0-2.886 2.885v25.666L.845 65.692a2.887 2.887 0 0 0 0 4.082l18.148 18.15v25.663a2.887 2.887 0 0 0 2.886 2.885h25.665l18.147 18.15a2.887 2.887 0 0 0 4.082 0l18.15-18.15h25.664a2.887 2.887 0 0 0 2.887-2.885V87.923l18.147-18.15a2.887 2.887 0 0 0 0-4.081l-18.147-18.147V21.879a2.887 2.887 0 0 0-2.887-2.886H87.923L69.773.844A2.887 2.887 0 0 0 67.762 0Zm-.03 6.967L84.685 23.92a2.887 2.887 0 0 0 2.039.846H110.7V48.74a2.887 2.887 0 0 0 .844 2.041l16.952 16.952-16.952 16.953a2.887 2.887 0 0 0-.844 2.04V110.7H86.727a2.887 2.887 0 0 0-2.041.846L67.73 128.498l-16.95-16.952a2.887 2.887 0 0 0-2.042-.846H24.764V86.726a2.887 2.887 0 0 0-.844-2.04L6.966 67.733 23.92 50.781a2.887 2.887 0 0 0 .844-2.041V24.765h23.975a2.887 2.887 0 0 0 2.041-.846zm-2.987 40.265a2.877 2.896 0 0 0-2.876 2.895v26.785a2.877 2.896 0 0 0 .011.17 2.877 2.896 0 0 0-.01.17c0 2.881-2.248 5.163-5.11 5.19-2.816.028-5.072-2.138-5.198-4.95V59.906a2.886 2.886 0 0 0-.878-2.074 2.877 2.896 0 0 0-.018-.016 2.886 2.886 0 0 0-.03-.03 2.877 2.896 0 0 0-1.962-.778c-7.012 0-12.9 5.526-12.97 12.477-.065 6.446 4.905 11.76 11.219 12.6 1.804 3.668 5.584 6.191 9.89 6.15 3.13-.03 5.955-1.41 7.932-3.58 2.025 2.222 4.936 3.61 8.14 3.58 5.952-.058 10.808-4.99 10.808-10.983a2.877 2.896 0 0 0-.011-.17 2.877 2.896 0 0 0 .01-.17V50.128a2.877 2.896 0 0 0-2.878-2.895 2.877 2.896 0 0 0-2.876 2.895v26.785a2.877 2.896 0 0 0 .011.17 2.877 2.896 0 0 0-.01.17c0 2.881-2.246 5.163-5.109 5.19-2.862.028-5.151-2.21-5.206-5.091a2.877 2.896 0 0 0 0-.083v-.017a2.877 2.896 0 0 0-.011-.172 2.877 2.896 0 0 0 .01-.167V50.127a2.877 2.896 0 0 0-2.876-2.895zm32.14.818a2.877 2.896 0 0 0-2.875 2.896V84.52a2.877 2.896 0 0 0 2.876 2.895 2.877 2.896 0 0 0 2.876-2.895V50.946a2.877 2.896 0 0 0-2.876-2.896zM45.789 63.355V75.85c-2.613-1.06-4.36-3.513-4.332-6.31.028-2.75 1.767-5.143 4.332-6.185z" color="#000" font-family="sans-serif" font-weight="400" overflow="visible" paint-order="stroke fill markers"/></svg>