<?xml version="1.0" standalone="no"?>
<!DOCTYPE svg PUBLIC "-//W3C//DTD SVG 20010904//EN"
 "http://www.w3.org/TR/2001/REC-SVG-20010904/DTD/svg10.dtd">
<svg version="1.0" xmlns="http://www.w3.org/2000/svg"
 width="64.000000pt" height="64.000000pt" viewBox="0 0 64.000000 64.000000"
 preserveAspectRatio="xMidYMid meet">
<metadata>
Created by potrace 1.16, written by Peter Selinger 2001-2019
</metadata>
<g transform="translate(0.000000,64.000000) scale(0.100000,-0.100000)"
fill="#000000" stroke="none">
<path d="M0 555 c0 -52 4 -85 10 -85 7 0 7 -6 0 -19 -6 -12 -10 -106 -10 -235
l0 -216 320 0 320 0 0 320 0 320 -320 0 -320 0 0 -85z m347 25 c18 -16 31 -30
27 -30 -3 0 -22 14 -41 30 -18 17 -31 30 -27 30 3 0 22 -13 41 -30z m-107 -10
c-19 -11 -39 -19 -45 -19 -5 0 6 8 25 19 19 11 40 19 45 19 6 0 -6 -8 -25 -19z
m220 -95 c19 -19 32 -35 29 -35 -3 0 -20 16 -39 35 -19 19 -32 35 -29 35 3 0
20 -16 39 -35z m-389 -25 c10 -6 19 -16 19 -23 0 -7 8 -22 18 -33 10 -11 18
-29 17 -41 -1 -12 2 -20 6 -18 13 9 31 -24 25 -47 -3 -13 -3 -17 0 -10 3 6 12
12 20 12 12 0 12 4 4 20 -15 29 -5 25 15 -6 9 -15 13 -24 8 -21 -5 3 -15 2
-23 -4 -12 -7 -12 -9 -1 -9 7 0 11 -6 8 -13 -3 -8 3 -14 15 -14 13 -1 18 3 14
13 -8 21 2 17 14 -6 8 -15 8 -20 -1 -18 -6 2 -13 -8 -15 -21 -3 -14 -6 -26 -8
-28 -6 -6 -146 227 -146 242 0 8 -8 19 -17 24 -24 14 2 14 28 1z m-35 -56 c7
-20 8 -32 3 -27 -5 5 -14 24 -19 43 -12 43 0 30 16 -16z m314 12 c0 -11 -19
-15 -25 -6 -3 5 1 10 9 10 9 0 16 -2 16 -4z m-196 -42 c3 -8 2 -12 -4 -9 -6 3
-10 10 -10 16 0 14 7 11 14 -7z m116 -6 c8 -3 -3 -5 -24 -5 -21 1 -34 3 -27 5
6 2 8 8 5 14 -4 7 0 7 12 0 11 -5 26 -12 34 -14z m70 18 c0 -3 -4 -8 -10 -11
-5 -3 -10 -1 -10 4 0 6 5 11 10 11 6 0 10 -2 10 -4z m241 -13 c13 -16 12 -17
-3 -4 -17 13 -22 21 -14 21 2 0 10 -8 17 -17z m-314 -29 c-3 -3 -12 -4 -19 -1
-8 3 -5 6 6 6 11 1 17 -2 13 -5z m84 -21 c13 -17 13 -17 -6 -3 -11 8 -22 16
-24 17 -2 2 0 3 6 3 6 0 17 -8 24 -17z m-227 -79 c3 -8 2 -12 -4 -9 -6 3 -10
10 -10 16 0 14 7 11 14 -7z m26 -44 c6 -11 8 -20 6 -20 -3 0 -10 9 -16 20 -6
11 -8 20 -6 20 3 0 10 -9 16 -20z m85 0 c-3 -5 -1 -10 5 -10 7 0 10 -7 6 -15
-3 -9 0 -15 8 -15 19 0 25 -21 12 -42 -9 -15 -13 -12 -32 19 -21 35 -22 73 -2
73 5 0 6 -4 3 -10z m360 -28 c-8 -8 -25 10 -19 20 4 6 9 5 15 -3 4 -7 6 -15 4
-17z m-310 -102 c-22 -24 -31 -25 -39 -4 -3 8 -2 12 4 9 5 -3 18 -1 27 4 26
15 28 13 8 -9z"/>
</g>
</svg>
